<?xml version="1.0" standalone="no"?><svg xmlns="http://www.w3.org/2000/svg" viewBox="0 0 1440 320"><path fill="#3937C1" fill-opacity="0.3" d="M0,224L6.2,240C12.3,256,25,288,37,293.3C49.2,299,62,277,74,261.3C86.2,245,98,235,111,213.3C123.1,192,135,160,148,154.7C160,149,172,171,185,149.3C196.9,128,209,64,222,64C233.8,64,246,128,258,144C270.8,160,283,128,295,133.3C307.7,139,320,181,332,192C344.6,203,357,181,369,170.7C381.5,160,394,160,406,181.3C418.5,203,431,245,443,224C455.4,203,468,117,480,69.3C492.3,21,505,11,517,5.3C529.2,0,542,0,554,42.7C566.2,85,578,171,591,202.7C603.1,235,615,213,628,218.7C640,224,652,256,665,272C676.9,288,689,288,702,250.7C713.8,213,726,139,738,128C750.8,117,763,171,775,213.3C787.7,256,800,288,812,282.7C824.6,277,837,235,849,197.3C861.5,160,874,128,886,112C898.5,96,911,96,923,80C935.4,64,948,32,960,26.7C972.3,21,985,43,997,58.7C1009.2,75,1022,85,1034,122.7C1046.2,160,1058,224,1071,218.7C1083.1,213,1095,139,1108,101.3C1120,64,1132,64,1145,74.7C1156.9,85,1169,107,1182,101.3C1193.8,96,1206,64,1218,80C1230.8,96,1243,160,1255,170.7C1267.7,181,1280,139,1292,133.3C1304.6,128,1317,160,1329,149.3C1341.5,139,1354,85,1366,96C1378.5,107,1391,181,1403,218.7C1415.4,256,1428,256,1434,256L1440,256L1440,320L1433.8,320C1427.7,320,1415,320,1403,320C1390.8,320,1378,320,1366,320C1353.8,320,1342,320,1329,320C1316.9,320,1305,320,1292,320C1280,320,1268,320,1255,320C1243.1,320,1231,320,1218,320C1206.2,320,1194,320,1182,320C1169.2,320,1157,320,1145,320C1132.3,320,1120,320,1108,320C1095.4,320,1083,320,1071,320C1058.5,320,1046,320,1034,320C1021.5,320,1009,320,997,320C984.6,320,972,320,960,320C947.7,320,935,320,923,320C910.8,320,898,320,886,320C873.8,320,862,320,849,320C836.9,320,825,320,812,320C800,320,788,320,775,320C763.1,320,751,320,738,320C726.2,320,714,320,702,320C689.2,320,677,320,665,320C652.3,320,640,320,628,320C615.4,320,603,320,591,320C578.5,320,566,320,554,320C541.5,320,529,320,517,320C504.6,320,492,320,480,320C467.7,320,455,320,443,320C430.8,320,418,320,406,320C393.8,320,382,320,369,320C356.9,320,345,320,332,320C320,320,308,320,295,320C283.1,320,271,320,258,320C246.2,320,234,320,222,320C209.2,320,197,320,185,320C172.3,320,160,320,148,320C135.4,320,123,320,111,320C98.5,320,86,320,74,320C61.5,320,49,320,37,320C24.6,320,12,320,6,320L0,320Z"></path></svg>